<svg xmlns="http://www.w3.org/2000/svg" viewBox="0 0 118.8 144" fill="currentColor">
  <!-- Roam (WeRoam) official logomark — Illustrator vector, recolored to currentColor for the activity bar. -->
  <path d="M98.7,86.5c6.2-8.2,9.9-17.1,9.9-28.2C108.6,31,86.6,9,59.4,9S10.2,31,10.2,58.2c0,11.1,3.7,20,9.9,28.2L36,76.8c-4.3-5.3-7.2-12.4-7.2-19.7c0-16.9,13.7-30.6,30.6-30.6S90,40.2,90,57.1c0,7.3-2.9,14.4-7.2,19.7L98.7,86.5L98.7,86.5z"/>
  <path d="M46.3,119.5c0,0,5.3-5.2,13.1-5.2c7.1,0,13.1,5.2,13.1,5.2L59.4,135L46.3,119.5L46.3,119.5z"/>
  <path d="M26.7,96.2c0,0,13.1-11.9,32.7-11.9c19.5,0,32.6,11.9,32.6,11.9l-11.5,13.8c0,0-7-8.2-21.1-8.2s-21.2,8.2-21.2,8.2L26.7,96.2L26.7,96.2z"/>
</svg>
